<svg id="BACKGROUND" xmlns="http://www.w3.org/2000/svg" viewBox="0 0 142.8 166"><defs><style>.cls-1{fill:#1d1d1d;}.cls-2{fill:#009e66;}</style></defs><title>king-logo-plain</title><path class="cls-1" d="M319.61,589l-40,51.51,40,65.91v34.22H294.33l-42.69-75.29-15,18.37L237,708.64H198l-0.37-134h39v68.72h0.77c3.88-6.73,8-12.94,11.9-19.15l33.86-49.57h36.44V589Z" transform="translate(-197.59 -574.64)"/><path class="cls-2" d="M319.61,574.64H283.17l-33.86,49.57c-3.88,6.21-8,12.42-11.9,19.15h-0.77V574.64h-39l0.37,134H237l-0.39-24.92,15-18.37,42.69,75.29h46.06l-60.8-100.13,51.18-65.87H319.61Z" transform="translate(-197.59 -574.64)"/></svg>